<svg id="b0c6476e-5498-496f-a8f7-8b05c6ae7d3e" data-name="Layer 1" xmlns="http://www.w3.org/2000/svg" viewBox="0 0 600 200">
  <defs>
    <style>
      .a656b358-e4c3-4ed5-8be1-2461823adc08 {
        fill: #fff;
      }
    </style>
  </defs>
  <path class="a656b358-e4c3-4ed5-8be1-2461823adc08" d="M563.29,15.18c-.42,0-.85,0-1.27,0H461.78v77.9h84.4v11.33c-2.81,0-5.61,0-8.42,0h-76v80.39H562l1.27,0v11.66H447.59c0-.31,0-.61,0-.92V3.66H562.44c.29,0,.57,0,.85,0Z"/>
  <path class="a656b358-e4c3-4ed5-8be1-2461823adc08" d="M329.19,196.53c-.24,0-.48-.11-.73-.13-2.69-.24-5.4-.4-8.08-.7a85.34,85.34,0,0,1-25.18-6.81A79.56,79.56,0,0,1,271,172.44a84,84,0,0,1-15.56-21.56,102.08,102.08,0,0,1-9.52-28.66,128.6,128.6,0,0,1-1.79-27,108.14,108.14,0,0,1,5-29.8,91.23,91.23,0,0,1,17-31.15A83.62,83.62,0,0,1,298.12,11a92.47,92.47,0,0,1,20.82-6,114.74,114.74,0,0,1,22.75-1.28,93.94,93.94,0,0,1,25,4.23,78.07,78.07,0,0,1,24.5,13c2.09,1.63,4.1,3.35,6.14,5,.2.16.37.34.59.54-.1.18-.19.36-.29.51-1.25,1.81-2.54,3.59-3.73,5.43A3.91,3.91,0,0,1,389,33.74c-.69-.39-1.33-.85-2-1.3-3-2.06-5.88-4.18-8.87-6.18a60,60,0,0,0-18.51-8,81.31,81.31,0,0,0-12.36-2.32,101.13,101.13,0,0,0-14.35-.46A82.23,82.23,0,0,0,319,17.06C296.26,21.9,279.2,34.32,268.3,54.92a85.71,85.71,0,0,0-8.49,25,116.7,116.7,0,0,0-1.61,25.66A102.31,102.31,0,0,0,261.7,129a80.7,80.7,0,0,0,14.43,29.09A68.88,68.88,0,0,0,312.6,182a75.83,75.83,0,0,0,16.33,2.58,116.47,116.47,0,0,0,16-.36,76.39,76.39,0,0,0,19.53-4.16,67.87,67.87,0,0,0,19.64-11.22c1.88-1.53,3.68-3.15,5.53-4.72a11.05,11.05,0,0,1,1.41-1.06,3,3,0,0,1,3.81.41c1.82,1.88,3.59,3.82,5.43,5.8-.86.88-1.69,1.75-2.55,2.6a81.42,81.42,0,0,1-31.95,19.67,89,89,0,0,1-17.94,4c-3.41.39-6.85.59-10.27.88-.25,0-.49.09-.73.13Z"/>
  <path class="a656b358-e4c3-4ed5-8be1-2461823adc08" d="M148.88,196.53c-1.2-.11-2.4-.24-3.6-.33a68.44,68.44,0,0,1-22.77-5.27,73.16,73.16,0,0,1-22-15c-1.35-1.32-2.63-2.71-3.95-4.08.12-.24.2-.41.3-.57,1.07-1.69,2.13-3.38,3.22-5.06a4.89,4.89,0,0,1,2.9-2.19,3,3,0,0,1,2.44.28,16,16,0,0,1,1.78,1.27c2.77,2.32,5.49,4.69,8.29,7A56.89,56.89,0,0,0,141,184.12a63.16,63.16,0,0,0,12.88,1,54.69,54.69,0,0,0,17.43-2.89,44.07,44.07,0,0,0,16.3-9.82,39.83,39.83,0,0,0,10.35-17.08,47.15,47.15,0,0,0,2-16.85,28.62,28.62,0,0,0-3.13-12.09,32.61,32.61,0,0,0-9.17-10.58,58.65,58.65,0,0,0-12.72-7.13c-4.18-1.76-8.51-3.11-12.81-4.54-6.49-2.16-13-4.23-19.47-6.46a90.75,90.75,0,0,1-12.93-5.4,50.86,50.86,0,0,1-13-9.4,38.17,38.17,0,0,1-10.76-21.27,53.15,53.15,0,0,1-.59-12.21C106.56,33.16,114,20.59,127.85,12a54.81,54.81,0,0,1,21.58-7.65,81.13,81.13,0,0,1,16.11-.51A68,68,0,0,1,182.61,7a61.84,61.84,0,0,1,23.76,14.45c.36.35.75.67,1,.94a2,2,0,0,1,0,.33c-1.07,2.05-2.09,4.11-3.21,6.13a3.59,3.59,0,0,1-5.31,1.51,17.89,17.89,0,0,1-2.65-1.95,57.41,57.41,0,0,0-21.84-11.76,40.75,40.75,0,0,0-9.24-1.47c-2.59-.12-5.19-.21-7.78-.14A46.39,46.39,0,0,0,138,19.51c-10.68,5.25-17.23,13.71-19.51,25.39a36,36,0,0,0,.29,15A26.49,26.49,0,0,0,125.45,72a41.94,41.94,0,0,0,9.93,7.8,76.65,76.65,0,0,0,14.4,6.41c6.8,2.3,13.61,4.57,20.39,6.93a151.73,151.73,0,0,1,16.16,6.42,53.79,53.79,0,0,1,14.29,9.66,37.33,37.33,0,0,1,10.76,18.14,51,51,0,0,1,1.3,12.56,59.16,59.16,0,0,1-6,26.11,51.53,51.53,0,0,1-23.19,23.43,59.69,59.69,0,0,1-20.13,6.27c-2.38.3-4.77.46-7.15.69-.25,0-.49.1-.73.14Z"/>
  <path class="a656b358-e4c3-4ed5-8be1-2461823adc08" d="M36.71,3.7h8.64V195.82H36.71Z"/>
  <path class="a656b358-e4c3-4ed5-8be1-2461823adc08" d="M52.56,3.7h8.56V195.81H52.56Z"/>
</svg>
