<svg id="b9561cdd-5d7a-49b7-bb20-a24f3a619aaa" data-name="Layer 1" xmlns="http://www.w3.org/2000/svg" viewBox="0 0 600 200">
  <path d="M563.44,15.18c-.42,0-.84,0-1.26,0H461.93v77.9h84.4v11.33c-2.81,0-5.61,0-8.42,0h-76v80.39H562.17c.43,0,.85,0,1.27,0v11.66H447.75c0-.31,0-.62,0-.93V3.66H562.6l.84,0Z"/>
  <path d="M329.34,196.53a6.1,6.1,0,0,0-.72-.14c-2.7-.23-5.4-.39-8.09-.7a85.49,85.49,0,0,1-25.18-6.8,79.88,79.88,0,0,1-24.17-16.45,83.43,83.43,0,0,1-15.56-21.57,102,102,0,0,1-9.53-28.65,130,130,0,0,1-1.79-27,108.06,108.06,0,0,1,5-29.79,91.53,91.53,0,0,1,17-31.16A83.79,83.79,0,0,1,298.28,11a91.7,91.7,0,0,1,20.81-6,113.29,113.29,0,0,1,22.75-1.28,93.6,93.6,0,0,1,25,4.22,78.16,78.16,0,0,1,24.49,13c2.09,1.62,4.1,3.35,6.15,5,.19.16.36.34.58.55a4.7,4.7,0,0,1-.29.5c-1.24,1.81-2.53,3.6-3.73,5.44a3.9,3.9,0,0,1-4.94,1.25c-.68-.39-1.33-.84-2-1.29-3-2.06-5.87-4.18-8.87-6.19a60.09,60.09,0,0,0-18.51-8,82.09,82.09,0,0,0-12.36-2.32A102.59,102.59,0,0,0,333,15.44a82.36,82.36,0,0,0-13.92,1.62c-22.71,4.83-39.77,17.25-50.67,37.86a86.24,86.24,0,0,0-8.49,25,116.74,116.74,0,0,0-1.6,25.66,101.39,101.39,0,0,0,3.5,23.42,80.51,80.51,0,0,0,14.42,29.09A69,69,0,0,0,312.76,182a75.13,75.13,0,0,0,16.32,2.58,113.54,113.54,0,0,0,16-.36A76.31,76.31,0,0,0,364.57,180a67.61,67.61,0,0,0,19.64-11.22c1.88-1.52,3.68-3.15,5.53-4.72a12.19,12.19,0,0,1,1.42-1.06,3,3,0,0,1,3.81.42c1.82,1.88,3.58,3.82,5.43,5.79-.87.89-1.7,1.76-2.56,2.6a81.19,81.19,0,0,1-31.95,19.67,88.83,88.83,0,0,1-17.94,4c-3.41.38-6.85.58-10.27.87a6.1,6.1,0,0,0-.72.14Z"/>
  <path d="M149,196.53c-1.2-.11-2.39-.25-3.6-.33a68.62,68.62,0,0,1-22.76-5.27,73.36,73.36,0,0,1-22-15c-1.35-1.32-2.63-2.7-4-4.07.12-.24.2-.42.3-.58q1.61-2.53,3.22-5.06a5,5,0,0,1,2.9-2.19,3,3,0,0,1,2.44.28,14.19,14.19,0,0,1,1.79,1.28c2.77,2.31,5.48,4.69,8.28,7a57,57,0,0,0,25.52,11.56,62.35,62.35,0,0,0,12.87.95,54.64,54.64,0,0,0,17.43-2.89,44,44,0,0,0,16.3-9.82,39.73,39.73,0,0,0,10.35-17.08,46.87,46.87,0,0,0,2-16.85A28.65,28.65,0,0,0,197,126.34a32.76,32.76,0,0,0-9.18-10.58,58,58,0,0,0-12.72-7.12c-4.18-1.77-8.51-3.11-12.81-4.55-6.49-2.16-13-4.22-19.47-6.46a91.25,91.25,0,0,1-12.92-5.39,51,51,0,0,1-13-9.4A38.23,38.23,0,0,1,106,61.57a53.2,53.2,0,0,1-.59-12.21C106.71,33.15,114.13,20.59,128,12a54.63,54.63,0,0,1,21.57-7.66,81.89,81.89,0,0,1,16.11-.51A68,68,0,0,1,182.76,7a61.79,61.79,0,0,1,23.76,14.46c.36.34.75.67,1,.93a1.46,1.46,0,0,1,0,.33c-1.06,2.05-2.09,4.12-3.21,6.14A3.59,3.59,0,0,1,199,30.36a17.8,17.8,0,0,1-2.64-1.95,57.54,57.54,0,0,0-21.85-11.77,40.1,40.1,0,0,0-9.24-1.46c-2.59-.12-5.19-.22-7.77-.15a46.33,46.33,0,0,0-19.36,4.48c-10.69,5.24-17.23,13.71-19.52,25.38a36.17,36.17,0,0,0,.29,15A26.58,26.58,0,0,0,125.6,72a42,42,0,0,0,9.93,7.81,77.64,77.64,0,0,0,14.41,6.4c6.8,2.31,13.6,4.58,20.38,6.93a151,151,0,0,1,16.16,6.43,53.73,53.73,0,0,1,14.3,9.65,37.29,37.29,0,0,1,10.75,18.14,50.62,50.62,0,0,1,1.3,12.57,59.29,59.29,0,0,1-6,26.11,51.55,51.55,0,0,1-23.2,23.43,59.68,59.68,0,0,1-20.13,6.26c-2.37.3-4.77.46-7.15.7a6.26,6.26,0,0,0-.73.14Z"/>
  <path d="M36.86,3.69h8.65V195.81H36.86Z"/>
  <path d="M52.71,3.69h8.56V195.81H52.71Z"/>
</svg>
