<?xml version="1.0" encoding="utf-8"?>
<!-- Generator: Adobe Illustrator 27.4.0, SVG Export Plug-In . SVG Version: 6.00 Build 0)  -->
<svg version="1.1" id="Layer_1" xmlns="http://www.w3.org/2000/svg" xmlns:xlink="http://www.w3.org/1999/xlink" x="0px" y="0px"
	 width="256px" height="256px" viewBox="0 0 256 256" style="enable-background:new 0 0 256 256;" xml:space="preserve">
<style type="text/css">
	.st0{fill:#FADA57;}
	.st1{fill:none;}
	.st2{fill:none;stroke:#FADA57;stroke-width:4;}
	.st3{fill:#FDF0BA;stroke:#FADA57;stroke-width:4;}
	.st4{fill:none;stroke:#F3DD80;}
	.st5{fill:none;stroke:#EAC14E;stroke-width:2;}
</style>
<g>
	<ellipse class="st0" cx="127.5" cy="178.5" rx="47.5" ry="17.5"/>
	<ellipse class="st1" cx="127.5" cy="178.5" rx="47.5" ry="17.5"/>
	<path class="st2" d="M173,178.5c0,1.6-0.9,3.4-3,5.3c-2.2,1.9-5.4,3.7-9.6,5.2c-8.3,3.1-20,5-32.9,5s-24.6-1.9-32.9-5
		c-4.2-1.5-7.4-3.3-9.6-5.2c-2.2-1.9-3-3.7-3-5.3s0.9-3.4,3-5.3c2.2-1.9,5.4-3.7,9.6-5.2c8.3-3.1,20-5,32.9-5s24.6,1.9,32.9,5
		c4.2,1.5,7.4,3.3,9.6,5.2C172.1,175.1,173,176.9,173,178.5z"/>
</g>
<g>
	<path class="st0" d="M80,82h90c2.8,0,5,2.2,5,5v75c0,16-13,29-29,29h-37c-16,0-29-13-29-29V82z"/>
	<path class="st1" d="M80,82h90c2.8,0,5,2.2,5,5v75c0,16-13,29-29,29h-37c-16,0-29-13-29-29V82z"/>
</g>
<rect x="80" y="129" class="st0" width="4" height="50"/>
<rect x="171" y="129" class="st0" width="4" height="50"/>
<rect x="80" y="80" class="st0" width="4" height="98"/>
<rect x="171" y="80" class="st0" width="4" height="63"/>
<path class="st3" d="M173,80c0,1.7-0.9,3.6-3.1,5.5c-2.2,1.9-5.4,3.8-9.6,5.3c-8.3,3.2-19.9,5.1-32.9,5.1s-24.6-2-32.9-5.1
	c-4.2-1.6-7.4-3.4-9.6-5.3C82.9,83.6,82,81.7,82,80s0.9-3.6,3.1-5.5c2.2-1.9,5.4-3.8,9.6-5.3c8.3-3.2,19.9-5.1,32.9-5.1
	s24.6,2,32.9,5.1c4.2,1.6,7.4,3.4,9.6,5.3C172.1,76.4,173,78.3,173,80z"/>
<g>
	<ellipse class="st0" cx="127.5" cy="80" rx="39.5" ry="12"/>
	<ellipse class="st1" cx="127.5" cy="80" rx="39.5" ry="12"/>
	<path class="st4" d="M166.5,80c0,1.4-0.9,2.9-2.9,4.3c-1.9,1.4-4.8,2.7-8.3,3.7c-7.1,2.2-16.9,3.5-27.8,3.5s-20.7-1.3-27.8-3.5
		c-3.5-1.1-6.4-2.4-8.3-3.7c-1.9-1.4-2.9-2.8-2.9-4.3s0.9-2.9,2.9-4.3c1.9-1.4,4.8-2.7,8.3-3.7c7.1-2.2,16.9-3.5,27.8-3.5
		s20.7,1.3,27.8,3.5c3.5,1.1,6.4,2.4,8.3,3.7C165.6,77.1,166.5,78.6,166.5,80z"/>
</g>
<path class="st5" d="M174,92c0,9.9-20,18-46.5,18S81,101.9,81,92"/>
<path class="st5" d="M174,104c0,9.9-20,18-46.5,18S81,113.9,81,104"/>
<path class="st5" d="M174,116c0,9.9-20,18-46.5,18S81,125.9,81,116"/>
<path class="st5" d="M174,116c0,9.9-20,18-46.5,18S81,125.9,81,116"/>
<path class="st5" d="M174,129c0,9.9-20,18-46.5,18S81,138.9,81,129"/>
<path class="st5" d="M174,141c0,9.9-20,18-46.5,18S81,150.9,81,141"/>
<path class="st5" d="M174,153c0,9.9-20,18-46.5,18S81,162.9,81,153"/>
<path class="st5" d="M174,165c0,9.9-20,18-46.5,18S81,174.9,81,165"/>
</svg>
