<?xml version="1.0" encoding="utf-8"?>
<!-- Generator: Adobe Illustrator 27.4.0, SVG Export Plug-In . SVG Version: 6.00 Build 0)  -->
<svg version="1.1" id="Layer_1" xmlns="http://www.w3.org/2000/svg" xmlns:xlink="http://www.w3.org/1999/xlink" x="0px" y="0px"
	 width="256px" height="258px" viewBox="0 0 256 258" style="enable-background:new 0 0 256 258;" xml:space="preserve">
<style type="text/css">
	.st0{fill:#D9D9D9;filter:url(#Adobe_OpacityMaskFilter);}
	.st1{mask:url(#mask0_1157_57404_00000106109409669485643240000006790348636172168866_);}
	.st2{fill:#FFFFFF;filter:url(#Adobe_OpacityMaskFilter_00000064355383942923424650000017075269974001924788_);}
	.st3{fill-rule:evenodd;clip-rule:evenodd;}
	.st4{mask:url(#path-4-outside-1_1157_57404_00000014636137496007365640000013908416918787660189_);fill:#979797;}
	.st5{fill:none;stroke:#FF594D;stroke-width:4;stroke-linecap:round;}
	.st6{fill:#D9D9D9;filter:url(#Adobe_OpacityMaskFilter_00000162314128604698284480000011419759123953601965_);}
	.st7{mask:url(#mask1_1157_57404_00000043434744984440790040000007167996547371529105_);}
	.st8{fill-rule:evenodd;clip-rule:evenodd;fill:url(#SVGID_1_);}
	.st9{fill:none;}
</style>
<defs>
	<filter id="Adobe_OpacityMaskFilter" filterUnits="userSpaceOnUse" x="56.3" y="81" width="139.3" height="100.3">
		<feColorMatrix  type="matrix" values="1 0 0 0 0  0 1 0 0 0  0 0 1 0 0  0 0 0 1 0"/>
	</filter>
</defs>
<mask maskUnits="userSpaceOnUse" x="56.3" y="81" width="139.3" height="100.3" id="mask0_1157_57404_00000106109409669485643240000006790348636172168866_">
	<rect x="133" y="68" class="st0" width="77" height="137"/>
</mask>
<g class="st1">
	<defs>
		
			<filter id="Adobe_OpacityMaskFilter_00000152241136155468867990000010565901999207457200_" filterUnits="userSpaceOnUse" x="56.3" y="81" width="139.3" height="100.3">
			<feColorMatrix  type="matrix" values="1 0 0 0 0  0 1 0 0 0  0 0 1 0 0  0 0 0 1 0"/>
		</filter>
	</defs>
	
		<mask maskUnits="userSpaceOnUse" x="56.3" y="81" width="139.3" height="100.3" id="path-4-outside-1_1157_57404_00000014636137496007365640000013908416918787660189_">
		
			<rect x="56" y="81" style="fill:#FFFFFF;filter:url(#Adobe_OpacityMaskFilter_00000152241136155468867990000010565901999207457200_);" width="140" height="101"/>
		<path class="st3" d="M126,101c20.6,0,39.3,8.4,52.8,21.9l11.2-11.2C173.6,95.2,151.1,85,126,85c-25.1,0-47.6,10.2-64,26.7
			l11.2,11.2C86.7,109.4,105.4,101,126,101z M84.5,134.2l11.3,11.3c7.7-7.7,18.4-12.5,30.2-12.5c11.8,0,22.4,4.8,30.2,12.5
			l11.3-11.3C156.9,123.6,142.2,117,126,117C109.8,117,95.1,123.6,84.5,134.2z M126,175.7l-18.9-18.9c4.8-4.8,11.5-7.8,18.9-7.8
			s14,3,18.9,7.8L126,175.7z"/>
	</mask>
	<path class="st4" d="M178.8,122.9l-1.4,1.4l1.4,1.4l1.4-1.4L178.8,122.9z M190,111.7l1.4,1.4l1.4-1.4l-1.4-1.4L190,111.7z
		 M62,111.7l-1.4-1.4l-1.4,1.4l1.4,1.4L62,111.7z M73.2,122.9l-1.4,1.4l1.4,1.4l1.4-1.4L73.2,122.9z M95.8,145.5l-1.4,1.4l1.4,1.4
		l1.4-1.4L95.8,145.5z M84.5,134.2l-1.4-1.4l-1.4,1.4l1.4,1.4L84.5,134.2z M156.2,145.5l-1.4,1.4l1.4,1.4l1.4-1.4L156.2,145.5z
		 M167.5,134.2l1.4,1.4l1.4-1.4l-1.4-1.4L167.5,134.2z M107.1,156.8l-1.4-1.4l-1.4,1.4l1.4,1.4L107.1,156.8z M126,175.7l-1.4,1.4
		l1.4,1.4l1.4-1.4L126,175.7z M144.9,156.8l1.4,1.4l1.4-1.4l-1.4-1.4L144.9,156.8z M180.2,121.5c-0.9-0.9-1.8-1.8-2.7-2.6l-2.7,3
		c0.9,0.8,1.7,1.6,2.6,2.5L180.2,121.5z M171.7,114.1c-2-1.5-4.1-2.9-6.3-4.2l-2.1,3.4c2,1.2,4,2.6,5.9,4L171.7,114.1z M158.8,106.3
		c-2.3-1.1-4.6-2-7-2.9l-1.3,3.8c2.2,0.8,4.4,1.7,6.6,2.7L158.8,106.3z M144.6,101.3c-2.4-0.6-4.9-1.1-7.4-1.5l-0.6,4
		c2.4,0.3,4.7,0.8,7,1.4L144.6,101.3z M129.8,99.1c-1.2-0.1-2.5-0.1-3.8-0.1v4c1.2,0,2.4,0,3.6,0.1L129.8,99.1z M126,99
		c-1.3,0-2.5,0-3.8,0.1l0.2,4c1.2-0.1,2.4-0.1,3.6-0.1V99z M114.8,99.8c-2.5,0.4-5,0.9-7.4,1.5l1,3.9c2.3-0.6,4.6-1,7-1.4
		L114.8,99.8z M100.2,103.5c-2.4,0.8-4.7,1.8-7,2.9l1.7,3.6c2.1-1,4.3-1.9,6.6-2.7L100.2,103.5z M86.6,109.9
		c-2.2,1.3-4.2,2.7-6.3,4.2l2.4,3.2c1.9-1.4,3.9-2.7,5.9-4L86.6,109.9z M74.5,118.9c-0.9,0.8-1.8,1.7-2.7,2.6l2.8,2.8
		c0.8-0.8,1.7-1.7,2.6-2.5L74.5,118.9z M74.6,121.5l-2.8-2.8l-2.8,2.8l2.8,2.8L74.6,121.5z M66.2,113.1l-2.8-2.8l-2.8,2.8l2.8,2.8
		L66.2,113.1z M63.4,113.1c1-1,2.1-2,3.1-3l-2.7-3c-1.1,1-2.2,2.1-3.3,3.1L63.4,113.1z M73.3,104.5c2.3-1.7,4.7-3.4,7.2-4.9
		l-2.1-3.4c-2.6,1.6-5.1,3.3-7.5,5.1L73.3,104.5z M88.1,95.6c2.6-1.2,5.3-2.4,8-3.4l-1.4-3.8c-2.9,1-5.7,2.2-8.4,3.5L88.1,95.6z
		 M104.5,89.7c2.8-0.7,5.6-1.3,8.5-1.7l-0.6-4c-3,0.4-6,1-8.9,1.8L104.5,89.7z M121.7,87.1c1.4-0.1,2.9-0.1,4.3-0.1v-4
		c-1.5,0-3,0-4.5,0.1L121.7,87.1z M126,87c1.5,0,2.9,0,4.3,0.1l0.2-4c-1.5-0.1-3-0.1-4.5-0.1V87z M139,88c2.9,0.4,5.7,1,8.5,1.7
		l1-3.9c-2.9-0.7-5.9-1.3-8.9-1.8L139,88z M155.8,92.2c2.7,1,5.4,2.1,8,3.4l1.7-3.6c-2.7-1.3-5.5-2.5-8.4-3.5L155.8,92.2z
		 M171.5,99.7c2.5,1.5,4.9,3.1,7.2,4.9l2.4-3.2c-2.4-1.8-4.9-3.5-7.5-5.1L171.5,99.7z M185.4,110.1c1.1,1,2.1,2,3.1,3l2.8-2.8
		c-1.1-1.1-2.2-2.1-3.3-3.1L185.4,110.1z M188.6,110.3l-2.8,2.8l2.8,2.8l2.8-2.8L188.6,110.3z M180.2,118.7l-2.8,2.8l2.8,2.8
		l2.8-2.8L180.2,118.7z M97.2,144.1l-2.8-2.8l-2.8,2.8l2.8,2.8L97.2,144.1z M88.8,135.6l-2.8-2.8l-2.8,2.8l2.8,2.8L88.8,135.6z
		 M85.9,135.6c0.9-0.9,1.8-1.7,2.7-2.5l-2.6-3c-1,0.9-2,1.8-2.9,2.7L85.9,135.6z M94.5,128.5c2-1.4,4.2-2.6,6.4-3.7l-1.8-3.6
		c-2.4,1.2-4.7,2.5-6.9,4L94.5,128.5z M107.8,122c2.3-0.8,4.7-1.4,7.2-1.9l-0.8-3.9c-2.6,0.5-5.2,1.2-7.7,2L107.8,122z M122.3,119.1
		c1.2-0.1,2.5-0.1,3.7-0.1v-4c-1.3,0-2.7,0-4,0.1L122.3,119.1z M126,119c1.2,0,2.5,0,3.7,0.1l0.3-4c-1.3-0.1-2.6-0.1-4-0.1V119z
		 M137.1,120.1c2.4,0.5,4.8,1.1,7.2,1.9l1.3-3.8c-2.5-0.8-5-1.5-7.7-2.1L137.1,120.1z M151.1,124.8c2.2,1.1,4.4,2.3,6.4,3.7l2.2-3.3
		c-2.2-1.5-4.5-2.8-6.9-4L151.1,124.8z M163.4,133.1c0.9,0.8,1.8,1.7,2.7,2.5l2.8-2.8c-0.9-0.9-1.9-1.8-2.9-2.7L163.4,133.1z
		 M166.1,132.8l-2.8,2.8l2.8,2.8l2.8-2.8L166.1,132.8z M157.6,141.3l-2.8,2.8l2.8,2.8l2.8-2.8L157.6,141.3z M157.6,144.1
		c-1-1-2.1-2-3.2-2.9l-2.5,3.1c1,0.8,2,1.7,3,2.7L157.6,144.1z M147.1,136.3c-2.6-1.4-5.3-2.5-8.1-3.4l-1.2,3.8
		c2.6,0.8,5,1.8,7.4,3.1L147.1,136.3z M130.4,131.2c-1.4-0.1-2.9-0.2-4.4-0.2v4c1.3,0,2.7,0.1,4,0.2L130.4,131.2z M126,131
		c-1.5,0-2.9,0.1-4.4,0.2l0.4,4c1.3-0.1,2.6-0.2,4-0.2V131z M113,132.9c-2.8,0.9-5.5,2-8.1,3.4l1.9,3.5c2.3-1.2,4.8-2.3,7.4-3.1
		L113,132.9z M97.7,141.1c-1.1,0.9-2.2,1.9-3.2,2.9l2.8,2.8c0.9-0.9,1.9-1.8,3-2.7L97.7,141.1z M108.6,158.2
		c1.1-1.1,2.4-2.2,3.7-3.1l-2.2-3.3c-1.6,1-3,2.2-4.3,3.6L108.6,158.2z M121.2,151.5c1.6-0.3,3.2-0.5,4.8-0.5v-4
		c-1.9,0-3.8,0.2-5.6,0.5L121.2,151.5z M126,151c1.7,0,3.3,0.2,4.8,0.5l0.8-3.9c-1.8-0.4-3.7-0.5-5.6-0.5V151z M139.7,155.2
		c1.3,0.9,2.6,1.9,3.7,3.1l2.8-2.8c-1.3-1.3-2.8-2.5-4.3-3.6L139.7,155.2z M143.4,155.4l-2.4,2.4l2.8,2.8l2.4-2.4L143.4,155.4z
		 M136.4,162.5l-4.7,4.7l2.8,2.8l4.7-4.7L136.4,162.5z M126.9,171.9l-2.4,2.4l2.8,2.8l2.4-2.4L126.9,171.9z M127.4,174.3l-2.4-2.4
		l-2.8,2.8l2.4,2.4L127.4,174.3z M120.3,167.2l-4.7-4.7l-2.8,2.8l4.7,4.7L120.3,167.2z M110.9,157.8l-2.4-2.4l-2.8,2.8l2.4,2.4
		L110.9,157.8z M178.8,122.9l-2.8,2.8l2.8,2.8l2.8-2.8L178.8,122.9z M190,111.7l2.8,2.8l2.8-2.8l-2.8-2.8L190,111.7z M62,111.7
		l-2.8-2.8l-2.8,2.8l2.8,2.8L62,111.7z M73.2,122.9l-2.8,2.8l2.8,2.8l2.8-2.8L73.2,122.9z M95.8,145.5l-2.8,2.8l2.8,2.8l2.8-2.8
		L95.8,145.5z M84.5,134.2l-2.8-2.8l-2.8,2.8l2.8,2.8L84.5,134.2z M156.2,145.5l-2.8,2.8l2.8,2.8l2.8-2.8L156.2,145.5z M167.5,134.2
		l2.8,2.8l2.8-2.8l-2.8-2.8L167.5,134.2z M107.1,156.8l-2.8-2.8l-2.8,2.8l2.8,2.8L107.1,156.8z M126,175.7l-2.8,2.8l2.8,2.8l2.8-2.8
		L126,175.7z M144.9,156.8l2.8,2.8l2.8-2.8l-2.8-2.8L144.9,156.8z M181.6,120c-0.9-0.9-1.8-1.8-2.8-2.7l-5.4,5.9
		c0.9,0.8,1.7,1.6,2.5,2.4L181.6,120z M172.9,112.5c-2.1-1.5-4.2-3-6.4-4.3l-4.1,6.9c2,1.2,3.9,2.5,5.8,3.9L172.9,112.5z
		 M159.6,104.5c-2.3-1.1-4.7-2.1-7.1-3l-2.7,7.5c2.2,0.8,4.3,1.7,6.4,2.7L159.6,104.5z M145.1,99.3c-2.5-0.6-5-1.1-7.6-1.5l-1.2,7.9
		c2.3,0.3,4.6,0.8,6.8,1.3L145.1,99.3z M129.9,97.1c-1.3-0.1-2.6-0.1-3.9-0.1v8c1.2,0,2.3,0,3.5,0.1L129.9,97.1z M126,97
		c-1.3,0-2.6,0-3.9,0.1l0.4,8c1.2-0.1,2.3-0.1,3.5-0.1V97z M114.5,97.8c-2.6,0.4-5.1,0.9-7.6,1.5l1.9,7.8c2.2-0.6,4.5-1,6.8-1.3
		L114.5,97.8z M99.5,101.6c-2.4,0.9-4.8,1.9-7.1,3l3.4,7.2c2.1-1,4.2-1.9,6.4-2.7L99.5,101.6z M85.5,108.2c-2.2,1.3-4.4,2.8-6.4,4.3
		l4.8,6.4c1.9-1.4,3.8-2.7,5.8-3.9L85.5,108.2z M73.2,117.4c-1,0.9-1.9,1.8-2.8,2.7l5.7,5.7c0.8-0.8,1.7-1.6,2.5-2.4L73.2,117.4z
		 M76,120l-2.8-2.8l-5.7,5.7l2.8,2.8L76,120z M67.6,111.6l-2.8-2.8l-5.7,5.7l2.8,2.8L67.6,111.6z M64.8,114.5c1-1,2-2,3.1-2.9
		l-5.4-5.9c-1.1,1-2.3,2.1-3.4,3.2L64.8,114.5z M74.5,106.1c2.3-1.7,4.6-3.3,7.1-4.8l-4.1-6.8c-2.7,1.6-5.2,3.3-7.7,5.2L74.5,106.1z
		 M89,97.4c2.5-1.2,5.2-2.3,7.8-3.3l-2.7-7.5c-2.9,1.1-5.8,2.3-8.6,3.6L89,97.4z M105,91.6c2.7-0.7,5.5-1.2,8.3-1.7l-1.2-7.9
		c-3.1,0.5-6.1,1.1-9.1,1.8L105,91.6z M121.7,89.1c1.4-0.1,2.8-0.1,4.3-0.1v-8c-1.6,0-3.1,0-4.6,0.1L121.7,89.1z M126,89
		c1.4,0,2.8,0,4.3,0.1l0.4-8c-1.5-0.1-3.1-0.1-4.6-0.1V89z M138.7,89.9c2.8,0.4,5.6,1,8.3,1.7l2-7.8c-3-0.8-6-1.4-9.1-1.8
		L138.7,89.9z M155.2,94.1c2.7,1,5.3,2.1,7.8,3.3l3.5-7.2c-2.8-1.3-5.6-2.5-8.6-3.6L155.2,94.1z M170.5,101.4
		c2.4,1.5,4.8,3.1,7.1,4.8l4.8-6.4c-2.5-1.8-5-3.6-7.7-5.2L170.5,101.4z M184.1,111.6c1.1,1,2.1,1.9,3.1,2.9l5.7-5.7
		c-1.1-1.1-2.2-2.2-3.4-3.2L184.1,111.6z M187.2,108.8l-2.8,2.8l5.7,5.7l2.8-2.8L187.2,108.8z M178.8,117.2L176,120l5.7,5.7l2.8-2.8
		L178.8,117.2z M98.7,142.7l-2.8-2.8l-5.7,5.7l2.8,2.8L98.7,142.7z M90.2,134.2l-2.8-2.8l-5.7,5.7l2.8,2.8L90.2,134.2z M87.3,137
		c0.8-0.8,1.7-1.7,2.6-2.4l-5.3-6c-1,0.9-2,1.8-3,2.8L87.3,137z M95.6,130.2c2-1.3,4-2.5,6.2-3.6l-3.5-7.2c-2.5,1.2-4.8,2.6-7.1,4.1
		L95.6,130.2z M108.4,123.9c2.2-0.8,4.5-1.4,6.9-1.8l-1.6-7.8c-2.7,0.5-5.4,1.2-7.9,2.1L108.4,123.9z M122.4,121.1
		c1.2-0.1,2.4-0.1,3.6-0.1v-8c-1.4,0-2.7,0-4.1,0.1L122.4,121.1z M126,121c1.2,0,2.4,0,3.6,0.1l0.5-8c-1.4-0.1-2.7-0.1-4.1-0.1V121z
		 M136.7,122c2.4,0.5,4.7,1.1,6.9,1.8l2.6-7.6c-2.6-0.9-5.2-1.6-7.9-2.1L136.7,122z M150.2,126.6c2.1,1.1,4.2,2.3,6.2,3.6l4.5-6.6
		c-2.3-1.5-4.6-2.9-7.1-4.1L150.2,126.6z M162,134.6c0.9,0.8,1.8,1.6,2.6,2.4l5.7-5.7c-1-1-2-1.9-3-2.8L162,134.6z M164.7,131.4
		l-2.8,2.8l5.7,5.7l2.8-2.8L164.7,131.4z M156.2,139.8l-2.8,2.8l5.7,5.7l2.8-2.8L156.2,139.8z M159,142.7c-1.1-1.1-2.2-2.1-3.4-3.1
		l-5.1,6.2c1,0.8,1.9,1.7,2.8,2.6L159,142.7z M148,134.5c-2.7-1.4-5.5-2.6-8.5-3.5l-2.3,7.7c2.4,0.7,4.8,1.7,7,2.9L148,134.5z
		 M130.6,129.2c-1.5-0.1-3-0.2-4.6-0.2v8c1.3,0,2.5,0.1,3.8,0.2L130.6,129.2z M126,129c-1.5,0-3.1,0.1-4.6,0.2l0.8,8
		c1.2-0.1,2.5-0.2,3.8-0.2V129z M112.5,131c-3,0.9-5.8,2.1-8.5,3.5l3.8,7.1c2.2-1.2,4.6-2.2,7-2.9L112.5,131z M96.4,139.6
		c-1.2,1-2.3,2-3.4,3.1l5.7,5.7c0.9-0.9,1.8-1.7,2.8-2.6L96.4,139.6z M110,159.6c1-1,2.2-2,3.4-2.8l-4.5-6.6
		c-1.7,1.1-3.2,2.4-4.6,3.8L110,159.6z M121.6,153.4c1.4-0.3,2.9-0.4,4.4-0.4v-8c-2,0-4,0.2-6,0.6L121.6,153.4z M126,153
		c1.5,0,3,0.1,4.4,0.4l1.6-7.8c-1.9-0.4-3.9-0.6-6-0.6V153z M138.6,156.8c1.2,0.8,2.4,1.8,3.4,2.8l5.7-5.7c-1.4-1.4-3-2.7-4.6-3.8
		L138.6,156.8z M142,154l-2.4,2.4l5.7,5.7l2.4-2.4L142,154z M135,161.1l-4.7,4.7l5.7,5.7l4.7-4.7L135,161.1z M125.5,170.5l-2.4,2.4
		l5.7,5.7l2.4-2.4L125.5,170.5z M128.8,172.8l-2.4-2.4l-5.7,5.7l2.4,2.4L128.8,172.8z M121.8,165.8l-4.7-4.7l-5.7,5.7l4.7,4.7
		L121.8,165.8z M112.3,156.3L110,154l-5.7,5.7l2.4,2.4L112.3,156.3z"/>
</g>
<line class="st5" x1="128" y1="32" x2="128" y2="224"/>
<defs>
	
		<filter id="Adobe_OpacityMaskFilter_00000005979778894597724360000012908407649876394138_" filterUnits="userSpaceOnUse" x="62.9" y="82.5" width="130.2" height="92.2">
		<feColorMatrix  type="matrix" values="1 0 0 0 0  0 1 0 0 0  0 0 1 0 0  0 0 0 1 0"/>
	</filter>
</defs>
<mask maskUnits="userSpaceOnUse" x="62.9" y="82.5" width="130.2" height="92.2" id="mask1_1157_57404_00000043434744984440790040000007167996547371529105_">
	
		<rect x="50.7" y="55" style="fill:#D9D9D9;filter:url(#Adobe_OpacityMaskFilter_00000005979778894597724360000012908407649876394138_);" width="75.3" height="118"/>
</mask>
<g class="st7">
	<g>
		
			<radialGradient id="SVGID_1_" cx="-1849.748" cy="2156.5862" r="1" gradientTransform="matrix(5.387963e-15 87.9921 70.3749 -4.309220e-15 -151641.5 162849.9375)" gradientUnits="userSpaceOnUse">
			<stop  offset="0" style="stop-color:#1BDBAD"/>
			<stop  offset="0.6406" style="stop-color:#30C19F"/>
			<stop  offset="1" style="stop-color:#23997D"/>
		</radialGradient>
		<path class="st8" d="M128,98.7c21,0,40,8.5,53.7,22.2l11.4-11.4c-16.7-16.7-39.6-27.1-65.1-27.1c-25.5,0-48.4,10.4-65.1,27.1
			L74.3,121C88.1,107.2,107.1,98.7,128,98.7z M85.8,132.5L97.3,144c7.9-7.9,18.7-12.7,30.7-12.7c12,0,22.8,4.9,30.7,12.7l11.5-11.5
			C159.4,121.7,144.5,115,128,115C111.6,115,96.6,121.7,85.8,132.5z M128,174.7l-19.2-19.2c4.9-4.9,11.7-7.9,19.2-7.9
			c7.5,0,14.3,3,19.2,7.9L128,174.7z"/>
		<path class="st9" d="M128,98.7c21,0,40,8.5,53.7,22.2l11.4-11.4c-16.7-16.7-39.6-27.1-65.1-27.1c-25.5,0-48.4,10.4-65.1,27.1
			L74.3,121C88.1,107.2,107.1,98.7,128,98.7z M85.8,132.5L97.3,144c7.9-7.9,18.7-12.7,30.7-12.7c12,0,22.8,4.9,30.7,12.7l11.5-11.5
			C159.4,121.7,144.5,115,128,115C111.6,115,96.6,121.7,85.8,132.5z M128,174.7l-19.2-19.2c4.9-4.9,11.7-7.9,19.2-7.9
			c7.5,0,14.3,3,19.2,7.9L128,174.7z"/>
	</g>
</g>
</svg>
